<svg height="512" viewBox="0 0 58 59" width="512" xmlns="http://www.w3.org/2000/svg"><g id="Page-1" fill="none" fill-rule="evenodd"><g id="010---Science-Book" fill-rule="nonzero"><path id="Shape" d="m34.65 31.92s-.65 9.08-3.46 12.66c-.13.14-.27.28-.41.42l-9.78 3-9.8-3c-2.1842543-2.1268217-3.60752423-4.9136193-4.05-7.93-.10869055-.6846008-.16219606-1.3768283-.16-2.07-.00017133-5.7028574 3.4619708-10.8347412 8.75-12.97.7541333-.30506 1.2483521-1.0365039 1.25-1.85v-9.18h8v9.18c-.0019406.8145944.4935088 1.5478595 1.25 1.85 4.2470915 1.729767 7.3852108 5.4201356 8.41 9.89z" fill="#2fa8cc"/><path id="Shape" d="m31.19 44.58c-.13.14-.27.28-.41.42h-19.58c-4.17521337-4.0833237-5.37518503-10.3303522-3.01-15.67 2.1418356-.9474702 4.4690647-1.4019804 6.81-1.33 7.535 0 11.6 3.588 17.93-.29.8041641 1.297562 1.3855256 2.7205457 1.72 4.21l-4.98 6.86c-.6367262.9530274-.8348591 2.133098-.5442985 3.2418162.2905606 1.1087181 1.0419968 2.0399361 2.0642985 2.5581838z" fill="#894b9d"/><path id="Shape" d="m30.96 25.19c-.4966325 1.4544899-1.1717885 2.8417507-2.01 4.13-4.35.84-8.07-1.32-13.95-1.32-2.3409353-.0719804-4.6681644.3825298-6.81 1.33 1.47529588-3.319982 4.1822402-5.9372924 7.55-7.3.7541333-.30506 1.2483521-1.0365039 1.25-1.85v-9.18h8v9.18c-.0019406.8145944.4935088 1.5478595 1.25 1.85 1.7740739.7172112 3.3809524 1.7930028 4.72 3.16z" fill="#67b9cc"/><path id="Shape" d="m28.95 29.32c-4.6709275 7.2248271-13.6167147 10.4050955-21.8 7.75-.3965781-2.6264026-.0357984-5.3114361 1.04-7.74 2.1418356-.9474702 4.4690647-1.4019804 6.81-1.33 5.88 0 9.6 2.16 13.95 1.32z" fill="#955ba5"/><path id="Shape" d="m46.99 45-6.99 2-7.01-2c-.6247896.0044795-1.2417127-.1394693-1.8-.42-1.5637707-.7984517-2.4297402-2.518251-2.14-4.25.0939092-.5549287.3052938-1.0833901.62-1.55l4.98-6.86.84-1.16c.3268745-.4955679.5007579-1.0763386.5-1.67v-7.09h8v7.09c.0028549.5945891.1801858 1.1752608.51 1.67l5.82 8.02c.8191284 1.2277332.895631 2.8067738.1990246 4.1079424-.6966063 1.3011687-2.0531184 2.1130166-3.5290246 2.1120576z" fill="#2fa8cc"/><path id="Shape" d="m46.99 45h-14c-.6247896.0044795-1.2417127-.1394693-1.8-.42-1.5637707-.7984517-2.4297402-2.518251-2.14-4.25.0944727-.5547701.3058112-1.0831163.62-1.55l4.92-6.78h10.81l4.92 6.78c.8191284 1.2277332.895631 2.8067738.1990246 4.1079424-.6966063 1.3011687-2.0531184 2.1130166-3.5290246 2.1120576z" fill="#df4d60"/><path id="Shape" d="m41 22v9c-.0009406.3342039-.0209733.6680812-.06 1h-6.35l.06-.08.84-1.16c.3268745-.4955679.5007579-1.0763386.5-1.67v-7.09z" fill="#67b9cc"/><path id="Shape" d="m40.94 32c-.43 3.66-3.25 8.72-11.89 8.33.0962726-.5542615.3074653-1.0822433.62-1.55l4.92-6.78z" fill="#ff5364"/><rect id="Rectangle-path" fill="#9fc9d3" height="4" rx="2" width="12" x="33.993" y="18"/><rect id="Rectangle-path" fill="#9fc9d3" height="4" rx="2" width="12" x="14.987" y="7"/><circle id="Oval" cx="37" cy="11" fill="#ff5364" r="2"/><circle id="Oval" cx="44" cy="3" fill="#ff5364" r="2"/><circle id="Oval" cx="44" cy="14" fill="#fb7b76" r="1"/><circle id="Oval" cx="37" cy="3" fill="#fb7b76" r="1"/><circle id="Oval" cx="24" cy="3" fill="#955ba5" r="1"/><circle id="Oval" cx="19" cy="1" fill="#955ba5" r="1"/><g fill="#b49aca"><circle id="Oval" cx="14" cy="34" r="2"/><circle id="Oval" cx="23" cy="39" r="2"/><circle id="Oval" cx="22" cy="33" r="1"/><circle id="Oval" cx="15" cy="41" r="1"/></g><circle id="Oval" cx="35" cy="40" fill="#fb7b76" r="1"/><circle id="Oval" cx="45" cy="41" fill="#fb7b76" r="1"/><circle id="Oval" cx="41" cy="37" fill="#fb7b76" r="1"/><path id="Shape" d="m56 45h-54c-1.1045695 0-2 .8954305-2 2v10c0 1.1045695.8954305 2 2 2h54c1.1045695 0 2-.8954305 2-2v-10c0-1.1045695-.8954305-2-2-2z" fill="#f0c419"/><path id="Rectangle-path" d="m48 45h4v14h-4z" fill="#f29c1f"/><path id="Rectangle-path" d="m6 45h4v14h-4z" fill="#f29c1f"/><rect id="Rectangle-path" fill="#f5efca" height="4" rx="1" width="14" x="14" y="50"/><path id="Shape" d="m44 56c-.5522847 0-1-.4477153-1-1v-6c0-.5522847.4477153-1 1-1s1 .4477153 1 1v6c0 .5522847-.4477153 1-1 1z" fill="#3f5c6c"/><path id="Shape" d="m40 54c-.5522847 0-1-.4477153-1-1v-2c0-.5522847.4477153-1 1-1s1 .4477153 1 1v2c0 .5522847-.4477153 1-1 1z" fill="#3f5c6c"/></g></g></svg>