<?xml version="1.0" encoding="iso-8859-1"?>
<!-- Generator: Adobe Illustrator 19.0.0, SVG Export Plug-In . SVG Version: 6.00 Build 0)  -->
<svg version="1.1" id="Capa_1" xmlns="http://www.w3.org/2000/svg" xmlns:xlink="http://www.w3.org/1999/xlink" x="0px" y="0px"
	 viewBox="0 0 512.001 512.001" style="enable-background:new 0 0 512.001 512.001;" xml:space="preserve">
<g>
	<g>
		<path d="M24.4,439.386c-0.279-0.161-0.531-0.312-0.758-0.457c-0.277-0.176-0.522-0.346-0.74-0.512
			c-3.807-2.886-9.233-2.145-12.123,1.662c-2.89,3.804-2.151,9.231,1.651,12.124c0.487,0.371,1.004,0.736,1.557,1.098
			c0.565,0.371,1.163,0.738,1.804,1.104c1.356,0.777,2.834,1.146,4.292,1.146c3,0,5.918-1.561,7.518-4.353
			C29.977,447.052,28.545,441.764,24.4,439.386z"/>
	</g>
</g>
<g>
	<g>
		<path d="M22.039,437.708c-0.324-0.29-0.648-0.613-0.969-0.965c-0.106-0.117-0.213-0.238-0.322-0.365
			c-0.001,0-0.001-0.001-0.001-0.001c-0.002-0.003-0.004-0.005-0.006-0.008c-3.117-3.625-8.579-4.036-12.204-0.921
			c-3.625,3.114-4.039,8.575-0.927,12.202c0.002,0.003,0.004,0.005,0.006,0.008c0.001,0.001,0.001,0.001,0.001,0.001
			c0.159,0.186,0.321,0.37,0.484,0.552c0.788,0.879,1.578,1.668,2.402,2.404c1.651,1.472,3.708,2.195,5.759,2.195
			c2.378,0,4.748-0.975,6.458-2.887C25.9,446.362,25.597,440.894,22.039,437.708z"/>
	</g>
</g>
<g>
	<g>
		<path d="M18.586,433.086c-0.023-0.05-0.047-0.104-0.069-0.158c-0.267-0.631-0.491-1.412-0.642-1.962
			c-1.256-4.611-6.014-7.33-10.62-6.078c-4.611,1.254-7.334,6.004-6.086,10.616c0.09,0.332,0.181,0.654,0.272,0.964
			c0.327,1.111,0.766,2.422,1.384,3.78c1.451,3.191,4.595,5.076,7.886,5.076c1.198,0,2.414-0.249,3.575-0.778
			C18.637,442.569,20.563,437.438,18.586,433.086z"/>
	</g>
</g>
<g>
	<g>
		<path d="M445.743,416.047c-4.322-0.537-8.394,2.245-9.457,6.485l-2.063,8.228c-1.555,6.199-7.104,10.528-13.494,10.528
			c-4.78,0-8.656,3.876-8.656,8.656c0,4.78,3.876,8.656,8.656,8.656h1.385c17.217,0,31.225-14.007,31.225-31.223v-2.74
			C453.339,420.267,450.081,416.583,445.743,416.047z"/>
	</g>
</g>
<g>
	<g>
		<path d="M422.113,98.535H194.029c-7.67,0-13.912-6.241-13.912-13.912c0-17.216-14.006-31.223-31.223-31.223H31.223
			C14.007,53.401,0,67.407,0,84.623v342.753c0,1.451,0.108,2.928,0.325,4.41c0.104,0.716,0.232,1.43,0.386,2.143
			c0,0.002,0.001,0.003,0.001,0.005c0.001,0.004,0.002,0.008,0.002,0.012c0.876,4.058,4.463,6.831,8.453,6.831
			c0.604,0,1.217-0.063,1.83-0.197c4.672-1.006,7.644-5.607,6.641-10.278c-0.03-0.141-0.058-0.279-0.083-0.417
			c-0.365-1.964-0.303-3.945,0.186-5.896c0.476-1.901,0.285-3.813-0.428-5.488V84.623c0-7.67,6.241-13.911,13.91-13.911h117.672
			c7.669,0,13.911,6.24,13.911,13.911c0,17.217,14.007,31.224,31.224,31.224h228.083c7.67,0,13.912,6.241,13.912,13.912v35.621
			c0,4.78,3.876,8.656,8.656,8.656c4.78,0,8.656-3.876,8.656-8.656v-35.621C453.337,112.542,439.33,98.535,422.113,98.535z"/>
	</g>
</g>
<g>
	<g>
		<path d="M20.072,435.576c-0.001-0.001-0.001-0.002-0.002-0.003c-0.002-0.002-0.003-0.004-0.005-0.008
			c-0.295-0.401-0.619-0.935-1.018-1.677c0-0.002-0.001-0.003-0.002-0.005s-0.002-0.003-0.002-0.004
			c-2.264-4.212-7.511-5.792-11.721-3.53c-4.211,2.26-5.792,7.506-3.533,11.718c0.001,0.002,0.002,0.003,0.002,0.004
			c0.004,0.008,0.008,0.014,0.011,0.021c0.506,0.94,1.293,2.343,2.337,3.758c0.003,0.003,0.005,0.007,0.008,0.01
			c0.001,0.001,0.001,0.002,0.002,0.003c1.698,2.297,4.315,3.512,6.968,3.512c1.785,0,3.588-0.551,5.135-1.694
			C22.096,444.84,22.911,439.421,20.072,435.576z"/>
	</g>
</g>
<g>
	<g>
		<path d="M31.235,441.288c-0.937,0-1.941-0.123-3.07-0.373c-4.67-1.044-9.288,1.898-10.329,6.563
			c-1.041,4.664,1.892,9.288,6.556,10.333c0.009,0.002,0.016,0.003,0.024,0.005c2.363,0.528,4.59,0.784,6.808,0.784h0.011
			c4.78,0,8.656-3.876,8.656-8.656C39.891,445.164,36.015,441.288,31.235,441.288z"/>
	</g>
</g>
<g>
	<g>
		<path d="M27.206,440.585c-0.618-0.188-1.316-0.411-1.804-0.638c-4.333-2.017-9.483-0.142-11.502,4.192
			c-2.018,4.333-0.142,9.483,4.192,11.502c0.009,0.004,0.018,0.009,0.027,0.013c1.45,0.673,2.857,1.133,4.044,1.494
			c0.841,0.256,1.689,0.378,2.524,0.378c3.709,0,7.141-2.404,8.279-6.138c0.256-0.84,0.378-1.688,0.378-2.522
			C33.345,445.154,30.94,441.722,27.206,440.585z"/>
	</g>
</g>
<g>
	<g>
		<path d="M505.38,168.742c-5.959-7.637-14.931-12.017-24.617-12.017H91.269c-14.343,0-26.797,9.717-30.286,23.629L0.947,419.785
			c-1.173,4.684-1.252,9.449-0.237,14.146c0.154,0.715,0.345,1.279,0.497,1.716c0.346,1.256,0.841,2.891,1.622,4.61
			c0.301,0.659,0.599,1.179,0.818,1.56l0.144,0.255c0.506,0.943,1.303,2.362,2.354,3.787c0.469,0.633,0.919,1.158,1.281,1.58
			l0.182,0.211c0.917,1.069,1.886,2.062,2.872,2.944c0.636,0.571,1.278,1.102,1.949,1.61c0.981,0.746,2.077,1.464,3.356,2.199
			l0.212,0.121c0.564,0.326,1.265,0.73,2.095,1.114c1.46,0.68,2.877,1.144,4.066,1.505l0.29,0.097
			c0.447,0.153,1.122,0.383,1.955,0.57c2.379,0.53,4.614,0.788,6.832,0.788h389.494c14.344,0,26.799-9.718,30.287-23.629
			l60.033-239.427C513.406,186.148,511.339,176.379,505.38,168.742z M494.256,191.333L434.223,430.76
			c-1.555,6.199-7.104,10.528-13.494,10.528H31.235c-0.91,0-1.883-0.115-2.956-0.347c-0.078-0.026-0.154-0.053-0.23-0.079
			c-0.277-0.094-0.555-0.188-0.843-0.276c-0.618-0.188-1.316-0.411-1.819-0.646c-0.26-0.12-0.497-0.271-0.742-0.411l-0.246-0.142
			c-0.62-0.357-1.106-0.67-1.499-0.968c-0.299-0.226-0.578-0.457-0.862-0.712c-0.433-0.387-0.868-0.835-1.28-1.316l-0.203-0.238
			c-0.163-0.19-0.331-0.373-0.482-0.577c-0.299-0.405-0.626-0.945-1.027-1.69c-0.124-0.23-0.253-0.458-0.382-0.683l-0.118-0.208
			c-0.279-0.642-0.515-1.459-0.668-2.02c-0.082-0.303-0.176-0.599-0.296-0.952c-0.394-2.008-0.341-4.036,0.159-6.031l60.035-239.427
			c1.554-6.198,7.102-10.527,13.493-10.527h389.493c4.316,0,8.313,1.951,10.969,5.354
			C494.385,182.794,495.305,187.146,494.256,191.333z"/>
	</g>
</g>
<g>
	<g>
		<path d="M214.412,323.78H77.743c-9.477,0-17.187,7.9-17.187,17.612v72.325c0,9.711,7.709,17.612,17.187,17.612h136.667
			c9.477,0,17.188-7.901,17.189-17.612v-72.325C231.6,331.681,223.889,323.78,214.412,323.78z M214.286,413.717
			c0,0.146-0.035,0.242-0.066,0.3H77.934c-0.031-0.057-0.066-0.154-0.066-0.3v-72.325c0-0.146,0.035-0.242,0.066-0.3h136.285
			c0.032,0.056,0.067,0.153,0.067,0.3V413.717z"/>
	</g>
</g>
<g>
	<g>
		<path d="M195.351,351.727H96.804c-4.78,0-8.656,3.876-8.656,8.656c0,4.78,3.876,8.656,8.656,8.656h98.546
			c4.78,0,8.656-3.876,8.656-8.656C204.007,355.602,200.131,351.727,195.351,351.727z"/>
	</g>
</g>
<g>
	<g>
		<path d="M195.351,386.068H96.804c-4.78,0-8.656,3.876-8.656,8.656c0,4.78,3.876,8.656,8.656,8.656h98.546
			c4.78,0,8.656-3.876,8.656-8.656C204.007,389.944,200.131,386.068,195.351,386.068z"/>
	</g>
</g>
<g>
</g>
<g>
</g>
<g>
</g>
<g>
</g>
<g>
</g>
<g>
</g>
<g>
</g>
<g>
</g>
<g>
</g>
<g>
</g>
<g>
</g>
<g>
</g>
<g>
</g>
<g>
</g>
<g>
</g>
</svg>
