<?xml version="1.0" encoding="iso-8859-1"?>
<!-- Generator: Adobe Illustrator 19.0.0, SVG Export Plug-In . SVG Version: 6.00 Build 0)  -->
<svg version="1.1" id="Layer_1" xmlns="http://www.w3.org/2000/svg" xmlns:xlink="http://www.w3.org/1999/xlink" x="0px" y="0px"
	 viewBox="0 0 512 512" style="enable-background:new 0 0 512 512;" xml:space="preserve">
<path style="fill:#F2427F;" d="M102.166,368.223V160.565C102.166,77.41,169.576,10,252.731,10l0,0
	c83.155,0,150.565,67.41,150.565,150.565v206.283"/>
<path style="fill:#00C3FF;" d="M319.201,352.612L256,408.324l-61.043-55.931c-35.773,3.476-67.861,9.675-95.6,16.764
	c-37.133,9.491-63.021,43.075-63.021,81.402v22.785c0,15.826,12.829,28.655,28.655,28.655h382.018
	c15.826,0,28.655-12.829,28.655-28.655v-22.781c0-38.51-26.177-72.019-63.496-81.525
	C385.092,362.143,353.899,356.104,319.201,352.612z"/>
<rect x="189.55" y="271.45" style="fill:#FF991F;" width="132.81" height="139.95"/>
<polygon style="fill:#0084FF;" points="180.789,327.94 158.671,356.982 197.503,445.532 256,408.324 312.707,445.532 
	355.685,360.173 331.211,323.165 256,408.324 "/>
<g>
	<path style="fill:#FFD41D;" d="M253.911,316.002L253.911,316.002c-56.208,0-101.774-45.566-101.774-101.774v-51.514
		c0-12.145,9.845-21.99,21.99-21.99h44.098c14.296,0,27.856-6.34,37.023-17.31l0,0l0,0c8.179,10.898,21.011,17.31,34.637,17.31
		h46.663c10.569,0,19.136,8.568,19.136,19.136v54.368C355.685,270.436,310.119,316.002,253.911,316.002z"/>
	<polygon style="fill:#FFD41D;" points="277.171,422.215 295.098,502 221.677,502 234.954,421.711 256,408.324 	"/>
</g>
<circle cx="215.21" cy="191.34" r="9.999"/>
<circle cx="292.06" cy="191.34" r="9.999"/>
<path d="M414.637,359.349c-18.115-4.614-36.63-8.466-55.104-11.487l-19.98-30.213c-1.716-2.595-4.542-4.243-7.646-4.459
	c-3.098-0.22-6.131,1.024-8.19,3.356l-67.929,76.914l-67.695-72.352c-2.012-2.15-4.861-3.293-7.809-3.155
	c-2.94,0.149-5.666,1.586-7.449,3.929l-19.7,25.868c-13.691,2.224-27.405,4.902-40.968,8.016v-195.2
	C112.166,83.057,175.223,20,252.731,20s140.565,63.057,140.565,140.565v129.387c0,5.523,4.477,10,10,10s10-4.477,10-10V160.565
	C413.296,72.029,341.267,0,252.73,0C164.195,0,92.166,72.029,92.166,160.565v200.256c-38.996,12.159-65.83,48.372-65.83,89.739
	v22.785c0,21.314,17.341,38.655,38.655,38.655h382.018c21.314,0,38.655-17.341,38.655-38.655v-22.781
	C485.664,407.51,456.457,370.001,414.637,359.349z M330.068,339.566l14.078,21.288l-35.329,70.166l-37.683-24.726L330.068,339.566z
	 M181.574,343.415l58.889,62.94l-38.486,24.48l-31.783-72.477L181.574,343.415z M46.336,473.345V450.56
	c0-33.872,22.821-63.362,55.497-71.714c16.703-4.269,33.754-7.876,50.792-10.751l35.719,81.453c1.172,2.673,3.454,4.701,6.246,5.55
	c0.954,0.291,1.935,0.434,2.912,0.434c1.881,0,3.746-0.531,5.367-1.562l18.567-11.81L213.195,492H64.991
	C54.705,492,46.336,483.631,46.336,473.345z M233.467,492l10.624-64.249l11.825-7.521l12.386,8.127l14.3,63.644h-49.135V492z
	 M465.664,473.345c0,10.287-8.369,18.655-18.655,18.655H303.1l-10.755-47.868l14.876,9.761c2.382,1.565,5.321,2.038,8.074,1.298
	c2.753-0.738,5.062-2.616,6.343-5.162l40.967-81.366c15.804,2.752,31.601,6.12,47.095,10.066
	c32.951,8.394,55.964,37.933,55.964,71.834V473.345z"/>
<path d="M289.885,130.724c-10.423,0-20.381-4.977-26.639-13.313c-1.833-2.443-4.683-3.914-7.736-3.994
	c-3.038-0.089-5.976,1.24-7.935,3.584c-7.288,8.721-17.985,13.723-29.35,13.723h-44.098c-17.64,0-31.99,14.351-31.99,31.99v51.514
	c0,61.632,50.142,111.774,111.774,111.774s111.773-50.142,111.773-111.774V159.86c0-16.066-13.07-29.136-29.136-29.136H289.885z
	 M345.685,159.86v54.368c0,50.604-41.169,91.774-91.773,91.774l0,0c-50.604,0-91.773-41.169-91.773-91.774v-51.514
	c0-6.611,5.379-11.99,11.99-11.99h44.098c13.536,0,26.451-4.66,36.746-13.044c9.607,8.299,22.039,13.044,34.914,13.044h46.664
	C341.586,150.724,345.685,154.823,345.685,159.86z"/>
<path d="M269.523,247.665c-3.687,3.687-8.589,5.718-13.803,5.718c-5.477,0-10.736-2.323-14.43-6.373
	c-3.722-4.081-10.047-4.372-14.127-0.65c-4.081,3.722-4.372,10.046-0.65,14.127c7.475,8.196,18.12,12.896,29.208,12.896
	c10.557,0,20.481-4.111,27.946-11.575c3.905-3.905,3.905-10.237,0-14.143S273.429,243.759,269.523,247.665z"/>
<circle cx="403.3" cy="327.94" r="10"/>
<g>
</g>
<g>
</g>
<g>
</g>
<g>
</g>
<g>
</g>
<g>
</g>
<g>
</g>
<g>
</g>
<g>
</g>
<g>
</g>
<g>
</g>
<g>
</g>
<g>
</g>
<g>
</g>
<g>
</g>
</svg>
